# xmcd
#
# Track frame offsets:
#  150
#  18046
#  33119
#  49843
#  65337
#  82122
#  97751
#  114446
#  130953
#  145955
#  163896
#  180830
#  197002
#  214267
#  230944
#  246888
#
# Disc length: 3490 seconds
#
# Revision: 0
# Processed by: cddbd v1.5.1PL2 Copyright (c) Steve Scherf et al.
# Submitted via: Collectorz.com_Music_Collector 6.9
#
DISCID=d80da010
DTITLE=Michelle Wright - The Greatest Hits Collection
DYEAR=1999
DGENRE=Country
TTITLE0=1 - New Kind of Love
TTITLE1=10 - What Love Looks Like
TTITLE2=11 - The Answer is Yes
TTITLE3=12 - People Get Ready
TTITLE4=13 - Your Love
TTITLE5=14 - Walkin' After Midnight
TTITLE6=15 - When I Found You
TTITLE7=16 - I Surrender
TTITLE8=2 - All You Really Wanna Do
TTITLE9=3 - Take it Like a Man
TTITLE10=4 - He Would Be Sixteen
TTITLE11=5 - Guitar Talk
TTITLE12=6 - Now and Then
TTITLE13=7 - One Good Man
TTITLE14=8 - Safe in the Arms of Love
TTITLE15=9 - Nobody's Girl
EXTD=
EXTT0=
EXTT1=
EXTT2=
EXTT3=
EXTT4=
EXTT5=
EXTT6=
EXTT7=
EXTT8=
EXTT9=
EXTT10=
EXTT11=
EXTT12=
EXTT13=
EXTT14=
EXTT15=
PLAYORDER=
